<svg width="16" height="16" viewBox="0 0 16 16" fill="none" xmlns="http://www.w3.org/2000/svg">
<path fill-rule="evenodd" clip-rule="evenodd" d="M8 16C12.4183 16 16 12.4183 16 8C16 5.79956 15.1116 3.80662 13.6739 2.36027L16 0L13.1047 1.84003C11.7195 0.690859 9.94045 0 8 0C3.58172 0 0 3.58172 0 8C0 9.99362 0.729239 11.8169 1.93552 13.2177L0 16L2.72021 14.0104C4.12899 15.249 5.97679 16 8 16ZM2.78261 12L1.93552 13.2177C2.17843 13.4998 2.44068 13.7647 2.72021 14.0104L3.13043 13.7104L9.04348 12.6667L11.8261 9.33334L2.78261 12ZM2.78261 12L5.25602 9.22223L13.913 5.33334L7.65216 10L2.78261 12ZM13.6739 2.36027C13.4927 2.17795 13.3027 2.0043 13.1047 1.84003L8.657 4.66666L5.56522 8.66666L10.744 5.33333L13.6739 2.36027Z" fill="black"/>
</svg>
