<svg width="200" height="200" viewBox="0 0 200 200" fill="none" xmlns="http://www.w3.org/2000/svg">
<g filter="url(#filter0_b_47:45)">
<path fill-rule="evenodd" clip-rule="evenodd" d="M200 100C200 155.228 155.228 200 100 200C70.3646 200 43.7401 187.109 25.4284 166.628L14.2436 170.217C12.4142 170.803 10.7968 168.754 12.2178 167.65L20.7612 161.01C7.74306 144.127 0 122.968 0 100C0 44.7715 44.7715 0 100 0C123.685 0 145.446 8.23393 162.578 21.9954L169.095 17.1781C170.665 16.0178 172.86 17.4741 171.808 18.9776L167.035 25.7949C187.28 44.0944 200 70.5617 200 100ZM162.216 32.6797C180.327 49.4256 191.667 73.3885 191.667 100C191.667 150.626 150.626 191.667 100 191.667C74.1807 191.667 50.8546 180.992 34.1942 163.815L48.6367 159.181C48.7682 159.139 48.9063 159.111 49.0482 159.097L103.591 153.728C103.965 153.691 104.307 153.555 104.568 153.339L144.126 120.553C145.463 119.445 143.909 117.477 142.111 118.002L89.7137 133.298L44.2451 142.99C43.9753 143.047 43.73 143.158 43.5294 143.314L27.3413 155.896C15.422 140.425 8.33333 121.04 8.33333 100C8.33333 49.3739 49.3739 8.33333 100 8.33333C120.918 8.33333 140.2 15.3399 155.626 27.1343L106.062 63.771C105.918 63.8769 105.794 63.9997 105.694 64.1349L77.0206 102.747C75.9815 104.146 77.863 105.638 79.5026 104.715L132.422 74.9194C132.666 74.7815 132.872 74.599 133.02 74.387L162.216 32.6797ZM91.4044 126.647C91.5782 126.59 91.7395 126.512 91.8826 126.414L150.895 86.1754C152.48 85.0948 150.898 82.9953 148.98 83.6335L73.5122 108.741C73.2159 108.839 72.9591 109.001 72.7679 109.21L46.0484 138.356C44.9502 139.554 46.5225 141.215 48.2298 140.661L91.4044 126.647Z" fill="black"/>
</g>
<defs>
<filter id="filter0_b_47:45" x="-4" y="-4" width="208" height="208" filterUnits="userSpaceOnUse" color-interpolation-filters="sRGB">
<feFlood flood-opacity="0" result="BackgroundImageFix"/>
<feGaussianBlur in="BackgroundImage" stdDeviation="2"/>
<feComposite in2="SourceAlpha" operator="in" result="effect1_backgroundBlur_47:45"/>
<feBlend mode="normal" in="SourceGraphic" in2="effect1_backgroundBlur_47:45" result="shape"/>
</filter>
</defs>
</svg>
