<svg width="16" height="16" viewBox="0 0 16 16" fill="none" xmlns="http://www.w3.org/2000/svg">
<path fill-rule="evenodd" clip-rule="evenodd" d="M16 8C16 12.4183 12.4183 16 8 16C5.97679 16 4.12899 15.249 2.72021 14.0104L0 16L1.93552 13.2177C0.729239 11.8169 0 9.99362 0 8C0 3.58172 3.58172 0 8 0C9.94045 0 11.7195 0.690859 13.1047 1.84003L16 0L13.6739 2.36027C15.1116 3.80662 16 5.79956 16 8ZM12.2112 2.4079C11.0393 1.52405 9.58087 1 8 1C4.13401 1 1 4.13401 1 8C1 9.65124 1.57174 11.1689 2.52805 12.3659L2.78261 12L11.8261 9.33334L9.04348 12.6667L3.79107 13.5938C4.96252 14.4766 6.42014 15 8 15C11.866 15 15 11.866 15 8C15 6.07833 14.2257 4.33751 12.972 3.07257L10.744 5.33333L5.56522 8.66666L8.657 4.66666L12.2112 2.4079ZM2.78261 12L5.25602 9.22223L13.913 5.33334L7.65216 10L2.78261 12Z" fill="black"/>
</svg>
