<svg width="200" height="200" viewBox="0 0 200 200" fill="none" xmlns="http://www.w3.org/2000/svg">
<g filter="url(#filter0_b_47:26)">
<path fill-rule="evenodd" clip-rule="evenodd" d="M100 200C155.228 200 200 155.228 200 100C200 70.5617 187.28 44.0944 167.035 25.7949L174.015 15.8239C174.647 14.9219 173.33 14.0481 172.388 14.7442L162.578 21.9954C145.446 8.23393 123.685 0 100 0C44.7715 0 0 44.7715 0 100C0 122.968 7.74307 144.127 20.7612 161.01L9.3982 169.841C8.54561 170.504 9.51607 171.733 10.6137 171.381L25.4284 166.628C43.7401 187.109 70.3646 200 100 200ZM25.4284 166.628L48.7159 159.156C48.7947 159.131 48.8776 159.114 48.9628 159.105L103.821 153.706C104.046 153.683 104.251 153.602 104.408 153.472L146.466 118.615C147.268 117.95 146.335 116.769 145.256 117.084L89.7137 133.298L44.0809 143.025C43.919 143.059 43.7719 143.126 43.6515 143.219L20.7612 161.01C22.2492 162.94 23.8062 164.813 25.4284 166.628ZM162.578 21.9954C164.101 23.2188 165.587 24.486 167.035 25.7949L132.93 74.516C132.841 74.6433 132.718 74.7528 132.571 74.8355L76.7918 106.241C75.8081 106.795 74.6792 105.9 75.3026 105.06L105.754 64.0533C105.815 63.9721 105.889 63.8985 105.975 63.8349L162.578 21.9954ZM91.7962 126.473C91.7104 126.532 91.6136 126.579 91.5093 126.613L45.7841 141.455C44.7597 141.788 43.8163 140.791 44.4753 140.072L72.8847 109.083C72.9994 108.957 73.1535 108.86 73.3312 108.801L153.388 82.167C154.539 81.7841 155.488 83.0437 154.537 83.6921L91.7962 126.473Z" fill="black"/>
</g>
<defs>
<filter id="filter0_b_47:26" x="-4" y="-4" width="208" height="208" filterUnits="userSpaceOnUse" color-interpolation-filters="sRGB">
<feFlood flood-opacity="0" result="BackgroundImageFix"/>
<feGaussianBlur in="BackgroundImage" stdDeviation="2"/>
<feComposite in2="SourceAlpha" operator="in" result="effect1_backgroundBlur_47:26"/>
<feBlend mode="normal" in="SourceGraphic" in2="effect1_backgroundBlur_47:26" result="shape"/>
</filter>
</defs>
</svg>
